<svg xmlns="http://www.w3.org/2000/svg" viewBox="0 0 64 64" role="img" aria-labelledby="title desc">
  <title id="title">GM Assistant favicon</title>
  <desc id="desc">A leather-trimmed shield with a parchment center and GM monogram.</desc>
  <defs>
    <linearGradient id="shield-border" x1="32" y1="6" x2="32" y2="58" gradientUnits="userSpaceOnUse">
      <stop offset="0" stop-color="#8b5e3c"/>
      <stop offset="1" stop-color="#6b3f1f"/>
    </linearGradient>
    <linearGradient id="shield-core" x1="32" y1="11" x2="32" y2="48" gradientUnits="userSpaceOnUse">
      <stop offset="0" stop-color="#f2e8d5"/>
      <stop offset="1" stop-color="#e0d0b0"/>
    </linearGradient>
  </defs>

  <path
    fill="url(#shield-border)"
    d="M32 4C21.8 4 14.5 9.4 14.5 18v12.1c0 12.3 7.8 22.1 17.5 29.9 9.7-7.8 17.5-17.6 17.5-29.9V18C49.5 9.4 42.2 4 32 4Z"
  />
  <path
    fill="url(#shield-core)"
    d="M32 9c-7.4 0-12.5 3.6-12.5 9.7v10.8c0 8.7 5.2 16.2 12.5 22.3 7.3-6.1 12.5-13.6 12.5-22.3V18.7C44.5 12.6 39.4 9 32 9Z"
  />
  <path
    fill="none"
    stroke="#c8b89a"
    stroke-linecap="round"
    stroke-width="2"
    opacity=".9"
    d="M22 18.5c2.7-2.7 6.1-4 10-4s7.3 1.3 10 4"
  />
  <text
    x="32"
    y="34.5"
    fill="#2c1f0e"
    font-family="Cinzel, Georgia, serif"
    font-size="20"
    font-weight="700"
    letter-spacing=".4"
    text-anchor="middle"
  >
    GM
  </text>
</svg>
